<?xml version="1.0" standalone="no"?>
<!DOCTYPE svg PUBLIC "-//W3C//DTD SVG 20010904//EN"
 "http://www.w3.org/TR/2001/REC-SVG-20010904/DTD/svg10.dtd">
<svg version="1.0" xmlns="http://www.w3.org/2000/svg"
 width="223.000000pt" height="223.000000pt" viewBox="0 0 223.000000 223.000000"
 preserveAspectRatio="xMidYMid meet">
<metadata>
Created by potrace 1.14, written by Peter Selinger 2001-2017
</metadata>
<g transform="translate(0.000000,223.000000) scale(0.100000,-0.100000)"
fill="#000000" stroke="none">
<path d="M547 1353 c-4 -3 -7 -64 -7 -135 0 -146 6 -155 67 -96 l33 32 33 -32
c18 -18 38 -32 44 -32 27 0 23 24 -11 58 l-35 37 34 37 c38 40 42 53 21 61 -8
3 -38 -20 -72 -54 -32 -32 -61 -59 -65 -59 -3 0 -6 35 -5 78 2 93 -12 131 -37
105z"/>
<path d="M762 1348 c-8 -8 -9 -15 0 -25 14 -17 39 2 31 23 -6 17 -15 18 -31 2z"/>
<path d="M120 1311 c-17 -15 -18 -20 -5 -79 7 -34 16 -88 20 -119 7 -65 11
-73 30 -73 9 0 17 15 21 40 4 22 11 40 16 40 12 0 87 -38 120 -61 24 -18 58
-17 58 1 0 10 -36 57 -78 102 l-35 37 31 32 c63 64 49 103 -22 63 -53 -31 -68
-31 -62 1 3 14 2 26 -2 26 -43 7 -76 4 -92 -10z"/>
<path d="M764 1278 c-5 -7 -9 -51 -9 -97 -1 -63 2 -84 13 -89 23 -8 30 15 29
99 0 52 -4 82 -12 89 -10 8 -16 7 -21 -2z"/>
<path d="M822 1275 c-3 -5 -7 -47 -7 -93 -1 -64 2 -85 13 -89 21 -9 32 16 32
78 0 65 15 87 46 65 15 -11 19 -27 19 -75 1 -65 6 -77 29 -68 11 4 14 22 14
73 -1 88 -23 117 -92 118 -27 1 -51 -3 -54 -9z"/>
<path d="M1043 1275 c-37 -16 -51 -39 -55 -90 -2 -31 3 -42 31 -67 27 -25 40
-29 72 -26 46 4 55 -18 12 -28 -33 -8 -46 -24 -32 -40 14 -17 55 -5 84 23 26
27 27 30 28 126 1 31 5 57 9 57 5 0 8 -8 8 -19 0 -30 28 -45 88 -46 45 -1 58
-4 60 -18 3 -14 -5 -17 -51 -17 -38 0 -57 -4 -60 -14 -9 -22 2 -26 68 -26 69
0 88 12 88 57 0 41 -35 63 -99 63 -41 0 -54 4 -54 15 0 11 12 15 49 15 30 0
53 5 60 14 18 21 -13 34 -73 31 -38 -2 -54 -8 -68 -25 -10 -13 -21 -20 -25
-16 -3 3 -3 6 1 6 4 0 2 9 -4 20 -8 16 -15 18 -29 10 -10 -5 -20 -8 -22 -6
-14 12 -59 13 -86 1z m87 -54 c22 -41 -2 -91 -43 -91 -48 0 -79 76 -39 99 29
17 70 13 82 -8z"/>
<path d="M1464 1274 c-39 -21 -53 -44 -54 -87 0 -54 43 -97 97 -97 43 1 73 19
73 45 0 13 -5 16 -22 10 -59 -18 -75 -17 -92 6 -20 29 -20 53 0 73 17 18 69
22 79 6 11 -17 35 -11 35 9 0 39 -68 59 -116 35z"/>
<path d="M1654 1280 c-65 -25 -84 -112 -35 -161 73 -72 196 1 164 97 -16 49
-82 81 -129 64z m81 -64 c32 -48 -22 -104 -73 -77 -28 15 -37 48 -21 77 17 33
72 33 94 0z"/>
<path d="M1813 1277 c-10 -13 -11 -173 0 -183 3 -4 13 -4 22 -1 11 5 15 21 15
57 0 60 13 90 39 90 10 0 24 6 30 14 10 12 9 17 -6 24 -10 5 -27 6 -38 2 -11
-4 -27 -4 -36 1 -11 5 -20 4 -26 -4z"/>
<path d="M1953 1283 c-10 -3 -13 -40 -13 -134 0 -122 1 -129 20 -129 19 0 26
23 21 66 -1 7 15 9 47 6 63 -6 101 23 109 84 4 35 1 46 -23 73 -30 33 -70 44
-110 30 -12 -4 -25 -4 -30 0 -5 5 -15 6 -21 4z m131 -65 c21 -30 20 -44 -4
-68 -53 -53 -124 18 -77 78 16 20 64 14 81 -10z"/>
<path d="M100 920 c0 -19 7 -20 140 -20 133 0 140 1 140 20 0 19 -7 20 -140
20 -133 0 -140 -1 -140 -20z"/>
</g>
</svg>
